<?xml version="1.0" encoding="UTF-8" standalone="no"?>
<svg
   width="2500"
   height="2500"
   viewBox="0 0 192.756 192.756"
   version="1.1"
   id="svg19"
   sodipodi:docname="wrexham-afc.svg"
   inkscape:version="1.3 (0e150ed6c4, 2023-07-21)"
   xmlns:inkscape="http://www.inkscape.org/namespaces/inkscape"
   xmlns:sodipodi="http://sodipodi.sourceforge.net/DTD/sodipodi-0.dtd"
   xmlns="http://www.w3.org/2000/svg"
   xmlns:svg="http://www.w3.org/2000/svg">
  <defs
     id="defs19" />
  <sodipodi:namedview
     id="namedview19"
     pagecolor="#ffffff"
     bordercolor="#666666"
     borderopacity="1.0"
     inkscape:showpageshadow="2"
     inkscape:pageopacity="0.0"
     inkscape:pagecheckerboard="0"
     inkscape:deskcolor="#d1d1d1"
     inkscape:zoom="0.1844"
     inkscape:cx="1250"
     inkscape:cy="1250"
     inkscape:window-width="1366"
     inkscape:window-height="744"
     inkscape:window-x="280"
     inkscape:window-y="1228"
     inkscape:window-maximized="1"
     inkscape:current-layer="svg19" />
  <path
     d="m 164.148,145.084 c 0,-2.06 -1.141,-3.72 -2.84,-4.438 v -0.021 c -0.1,-0.02 -0.16,-0.06 -0.26,-0.1 l -0.18,-0.061 v -6.518 c 0,-1.76 -1.98,-3.119 -4.52,-3.119 -2.498,0 -4.459,1.339 -4.518,3.059 0,0.021 -0.021,0.12 0,0.261 v 14.715 h -19.994 c -0.1,0 -2.18,0.021 -3.619,1.46 -0.859,0.84 -1.279,1.999 -1.279,3.438 0,0.08 0,0.141 0.02,0.221 h -0.041 l 0.66,12.696 c -4.338,0.04 -19.373,0.18 -29.131,0.239 l 2.18,-5.378 c 0.48,-1.22 3.258,-4.639 8.277,-6.818 2.379,-1.04 4.838,-1.56 7.697,-2.14 5.939,-1.239 13.357,-2.778 22.234,-10.057 13.295,-10.877 16.014,-23.793 16.014,-39.849 0,-7.437 -1.559,-12.696 -3.197,-18.274 -1.82,-6.159 -3.721,-12.537 -3.721,-23.193 0,-19.095 8.738,-32.191 8.838,-32.331 l 2.279,-3.359 -3.059,-2.679 -11.018,-9.577 -2.938,2.06 c -4.459,3.139 -11.877,5.019 -19.834,5.019 -11.438,0 -19.535,-3.719 -22.215,-7.178 l -3.619,-4.659 -3.599,4.659 c -2.68,3.458 -10.777,7.178 -22.214,7.178 -7.938,0 -15.375,-1.88 -19.834,-5.019 l -2.939,-2.06 -14.072,12.238 2.299,3.379 c 0.08,0.14 8.818,13.236 8.818,32.331 0,10.656 -1.88,17.034 -3.719,23.193 -1.64,5.578 -3.199,10.837 -3.199,18.274 0,16.056 2.719,28.972 16.015,39.849 8.897,7.258 16.295,8.817 22.253,10.057 2.839,0.58 5.318,1.1 7.678,2.14 5.039,2.18 7.797,5.599 8.297,6.818 l 2.159,5.378 c -9.757,-0.06 -24.792,-0.199 -29.131,-0.239 l 0.68,-12.696 h -0.04 c 0,-0.08 0.02,-0.141 0.02,-0.221 0,-1.439 -0.44,-2.599 -1.28,-3.438 -1.439,-1.439 -3.539,-1.46 -3.619,-1.46 H 40.944 v -14.715 -0.261 h -0.02 c -0.04,-1.72 -2,-3.059 -4.499,-3.059 -2.539,0 -4.519,1.359 -4.519,3.119 v 6.518 l -0.18,0.061 c -0.1,0.04 -0.18,0.08 -0.26,0.1 v 0.021 c -1.699,0.719 -2.859,2.379 -2.859,4.438 0,2.059 1.12,3.719 2.779,4.458 l -1.42,11.797 c -0.06,0.24 -0.06,0.56 0.14,0.899 0.64,1.021 2.779,1.52 6.578,1.52 h 21.414 c -0.1,0.48 -0.18,0.98 -0.18,1.521 0,0.52 0.2,0.979 0.54,1.359 l -0.42,14.775 v 0.04 c 0.04,0.28 0.48,2.799 7.618,2.799 h 61.462 c 7.117,0 7.578,-2.519 7.598,-2.799 v -0.04 l -0.42,-14.775 c 0.359,-0.38 0.561,-0.84 0.561,-1.359 0,-0.54 -0.08,-1.04 -0.182,-1.521 h 21.414 c 3.799,0 5.939,-0.499 6.578,-1.52 a 1.17,1.17 0 0 0 0.141,-0.899 l -1.42,-11.797 c 1.661,-0.741 2.76,-2.4 2.76,-4.46 z"
     id="path2"
     style="clip-rule:evenodd;fill-rule:evenodd" />
  <path
     d="m 156.35,135.986 c -0.299,0 -0.58,-0.02 -0.879,-0.08 l -0.621,-0.1 v 1.439 c -1.719,-1.52 -1.918,-2.759 -1.939,-3.119 v -0.18 c 0,-1.12 1.58,-2.04 3.439,-2.04 1.859,0 3.439,0.92 3.439,2.04 0,1.101 -1.58,2.04 -3.439,2.04 z m -119.925,0 c 0.3,0 0.58,-0.02 0.86,-0.08 l 0.64,-0.1 v 1.44 c 1.699,-1.52 1.919,-2.759 1.939,-3.119 v -0.18 c 0,-1.12 -1.58,-2.04 -3.439,-2.04 -1.879,0 -3.439,0.92 -3.439,2.04 0,1.1 1.56,2.039 3.439,2.039 z m 119.505,1.04 c 0.141,0 0.281,0.04 0.42,0.04 1.4,0 2.619,-0.44 3.439,-1.1 v 4.099 c -1.66,-0.66 -2.898,-1.34 -3.859,-2 z m -119.085,0 c -0.14,0 -0.28,0.04 -0.42,0.04 -1.399,0 -2.619,-0.44 -3.439,-1.1 v 4.099 c 1.66,-0.66 2.899,-1.34 3.859,-2 z m 59.523,46.147 H 65.657 c -5.698,0 -6.458,-1.6 -6.538,-1.82 l 0.4,-14.035 c 1.659,0.66 4.039,0.459 4.458,0.42 0.62,0.02 21.454,0.22 32.39,0.26 10.976,-0.04 31.81,-0.24 32.431,-0.26 0.42,0.039 2.799,0.24 4.438,-0.42 l 0.4,14.035 c -0.061,0.221 -0.82,1.82 -6.518,1.82 z m 66.7,-38.089 c 0,-1.6 -0.82,-2.88 -2.1,-3.439 -0.141,-0.04 -0.26,-0.1 -0.379,-0.14 -0.4,-0.141 -0.781,-0.28 -1.141,-0.42 -1.5,-0.6 -2.699,-1.22 -3.68,-1.84 -0.34,-0.199 -0.639,-0.42 -0.92,-0.619 -0.879,-0.66 -1.498,-1.3 -1.939,-1.899 v 12.136 h 6.539 c 2.101,-0.001 3.62,-1.58 3.62,-3.779 z m -133.38,0 c 0,-1.6 0.839,-2.88 2.12,-3.439 0.14,-0.04 0.24,-0.1 0.38,-0.14 0.399,-0.141 0.78,-0.28 1.14,-0.42 1.499,-0.6 2.699,-1.22 3.679,-1.84 0.32,-0.199 0.64,-0.42 0.92,-0.619 0.859,-0.66 1.499,-1.3 1.939,-1.899 v 12.136 h -6.538 c -2.101,-0.001 -3.64,-1.58 -3.64,-3.779 z m 126.402,17.595 c 4.279,0 5.338,-0.66 5.6,-0.939 0.039,-0.021 0.059,-0.061 0.059,-0.08 l -0.02,-0.16 -1.4,-11.637 c -0.279,0.04 -0.578,0.08 -0.879,0.08 h -27.611 c -0.16,0 -3.84,0.06 -3.84,3.818 0,1.8 1.359,3.06 2.9,4.499 1.299,1.22 2.719,2.579 3.438,4.419 z m -119.404,0 c -4.279,0 -5.358,-0.66 -5.619,-0.939 -0.02,-0.021 -0.04,-0.061 -0.06,-0.08 l 0.02,-0.16 1.4,-11.637 c 0.3,0.04 0.58,0.08 0.9,0.08 h 27.612 c 0.16,0 3.819,0.06 3.819,3.818 0,1.8 -1.34,3.06 -2.899,4.499 -1.299,1.22 -2.699,2.579 -3.439,4.419 z m 92.152,3.978 h 0.02 c 0.9,0.1 3.26,0.16 4.359,-0.52 0.08,-0.061 0.18,-0.1 0.24,-0.16 a 0.8,0.8 0 0 0 0.16,-0.22 c 0.1,-0.14 0.16,-0.3 0.16,-0.479 0,-0.54 -0.1,-1.04 -0.221,-1.521 a 5.498,5.498 0 0 0 -0.26,-0.8 c -0.66,-1.559 -1.898,-2.759 -3.139,-3.898 -0.699,-0.68 -1.42,-1.359 -2,-2.1 l 0.5,9.697 h 0.181 z m -64.9,0 h -0.04 c -0.88,0.1 -3.239,0.16 -4.339,-0.52 -0.08,-0.061 -0.18,-0.1 -0.24,-0.16 -0.08,-0.08 -0.12,-0.141 -0.18,-0.22 a 0.952,0.952 0 0 1 -0.14,-0.479 c 0,-0.54 0.08,-1.04 0.2,-1.521 0.08,-0.279 0.16,-0.54 0.28,-0.8 0.659,-1.559 1.899,-2.759 3.119,-3.898 0.72,-0.68 1.44,-1.359 2.02,-2.1 l -0.52,9.697 h -0.16 z"
     fill="#fde62f"
     id="path3"
     style="clip-rule:evenodd;fill-rule:evenodd" />
  <path
     d="m 136.736,155.921 h 1.619 v 4.738 h 1.379 v -6.857 h -1.139 c 0,0.06 -0.02,0.14 -0.041,0.26 -0.059,0.22 -0.16,0.38 -0.279,0.499 -0.16,0.181 -0.379,0.28 -0.66,0.341 -0.16,0.039 -0.459,0.079 -0.879,0.1 z m -100.671,0 v -0.92 c 0.44,-0.021 0.74,-0.061 0.9,-0.1 0.28,-0.061 0.5,-0.16 0.66,-0.341 0.12,-0.119 0.2,-0.279 0.26,-0.499 0.04,-0.12 0.06,-0.2 0.06,-0.26 h 1.12 v 6.857 h -1.38 v -4.738 h -1.62 z m 5.239,1.779 c 0.18,-0.3 0.42,-0.54 0.76,-0.7 -0.34,-0.22 -0.54,-0.46 -0.64,-0.72 -0.101,-0.26 -0.16,-0.5 -0.16,-0.72 0,-0.5 0.2,-0.92 0.58,-1.279 0.36,-0.34 0.9,-0.521 1.6,-0.521 0.68,0 1.22,0.181 1.6,0.521 0.38,0.359 0.56,0.779 0.56,1.279 0,0.22 -0.041,0.46 -0.14,0.72 -0.1,0.26 -0.32,0.48 -0.66,0.66 0.34,0.199 0.6,0.439 0.779,0.76 0.16,0.319 0.24,0.66 0.24,1.039 0,0.58 -0.2,1.08 -0.64,1.48 -0.42,0.419 -1.02,0.619 -1.8,0.619 -0.76,0 -1.34,-0.2 -1.739,-0.619 -0.4,-0.4 -0.6,-0.9 -0.6,-1.46 0,-0.399 0.08,-0.739 0.26,-1.059 z m 1.4,1.76 c 0.18,0.18 0.42,0.279 0.74,0.279 0.3,0 0.54,-0.1 0.72,-0.279 0.18,-0.181 0.26,-0.46 0.26,-0.8 0,-0.341 -0.08,-0.62 -0.26,-0.8 a 0.974,0.974 0 0 0 -0.72,-0.28 c -0.3,0 -0.56,0.1 -0.74,0.28 -0.16,0.18 -0.26,0.459 -0.26,0.8 0,0.34 0.08,0.619 0.26,0.8 z m 0.1,-3.14 c 0.14,0.16 0.36,0.24 0.64,0.24 0.28,0 0.5,-0.08 0.64,-0.24 0.16,-0.16 0.24,-0.36 0.24,-0.6 0,-0.28 -0.08,-0.479 -0.24,-0.64 -0.14,-0.141 -0.36,-0.221 -0.64,-0.221 -0.28,0 -0.5,0.08 -0.64,0.221 -0.16,0.16 -0.24,0.359 -0.24,0.64 a 0.81,0.81 0 0 0 0.24,0.6 z m 99.151,1.38 c -0.16,0.319 -0.26,0.66 -0.26,1.06 0,0.56 0.199,1.06 0.6,1.46 0.398,0.419 0.979,0.619 1.738,0.619 0.781,0 1.381,-0.2 1.801,-0.619 0.439,-0.4 0.658,-0.9 0.658,-1.48 0,-0.379 -0.1,-0.72 -0.26,-1.039 -0.18,-0.32 -0.42,-0.561 -0.76,-0.76 0.32,-0.18 0.541,-0.4 0.641,-0.66 0.1,-0.26 0.16,-0.5 0.16,-0.72 0,-0.5 -0.199,-0.92 -0.58,-1.279 -0.381,-0.34 -0.9,-0.521 -1.6,-0.521 -0.7,0 -1.219,0.181 -1.6,0.521 -0.379,0.359 -0.58,0.779 -0.58,1.279 0,0.22 0.061,0.46 0.16,0.72 0.099,0.26 0.32,0.5 0.641,0.72 a 1.83,1.83 0 0 0 -0.759,0.699 z m 1.399,1.76 c -0.16,-0.181 -0.26,-0.46 -0.26,-0.8 0,-0.341 0.1,-0.62 0.279,-0.8 a 0.983,0.983 0 0 1 0.721,-0.28 c 0.301,0 0.539,0.1 0.721,0.28 0.18,0.18 0.279,0.459 0.279,0.8 0,0.34 -0.1,0.619 -0.279,0.8 -0.16,0.18 -0.4,0.279 -0.721,0.279 -0.321,0 -0.561,-0.099 -0.74,-0.279 z m 0.099,-3.14 a 0.812,0.812 0 0 1 -0.238,-0.6 c 0,-0.28 0.078,-0.479 0.238,-0.64 0.16,-0.141 0.361,-0.221 0.641,-0.221 0.28,0 0.5,0.08 0.641,0.221 0.158,0.16 0.238,0.359 0.238,0.64 0,0.239 -0.08,0.439 -0.238,0.6 -0.141,0.16 -0.361,0.24 -0.641,0.24 -0.28,0 -0.481,-0.08 -0.641,-0.24 z m 8.518,-1.359 v -1.06 h -4.857 l -0.02,1.22 h 3.418 c -0.34,0.319 -0.74,0.879 -1.24,1.72 -0.779,1.319 -1.18,2.599 -1.219,3.818 h 1.4 c 0,-0.38 0.078,-0.899 0.238,-1.5 0.141,-0.619 0.32,-1.14 0.52,-1.56 0.24,-0.539 0.541,-1.079 0.9,-1.579 0.36,-0.519 0.641,-0.859 0.86,-1.059 z m -100.67,0 c -0.2,0.2 -0.48,0.54 -0.84,1.06 -0.36,0.5 -0.66,1.04 -0.9,1.579 -0.2,0.42 -0.38,0.94 -0.54,1.56 -0.14,0.601 -0.22,1.12 -0.22,1.5 h -1.399 c 0.04,-1.22 0.44,-2.499 1.219,-3.818 0.48,-0.841 0.9,-1.4 1.24,-1.72 h -3.419 l 0.02,-1.22 h 4.839 z m 102.51,3.599 h -1.318 c 0.02,0.54 0.139,0.979 0.318,1.319 0.381,0.64 1.061,0.96 2.039,0.96 0.781,0 1.381,-0.22 1.781,-0.66 0.398,-0.439 0.6,-0.959 0.6,-1.539 0,-0.56 -0.16,-0.979 -0.5,-1.3 -0.24,-0.22 -0.42,-0.319 -0.541,-0.319 0.16,-0.061 0.32,-0.18 0.48,-0.36 a 1.6,1.6 0 0 0 0.34,-1.02 c 0,-0.58 -0.199,-1.02 -0.6,-1.359 -0.401,-0.339 -0.92,-0.521 -1.58,-0.521 -0.359,0 -0.66,0.041 -0.898,0.141 -0.24,0.08 -0.461,0.199 -0.621,0.359 -0.24,0.221 -0.42,0.48 -0.52,0.74 -0.119,0.3 -0.18,0.619 -0.18,0.959 h 1.26 c 0,-0.319 0.061,-0.6 0.221,-0.799 0.139,-0.2 0.359,-0.301 0.68,-0.301 0.279,0 0.479,0.08 0.639,0.24 0.16,0.16 0.221,0.38 0.221,0.64 0,0.4 -0.141,0.681 -0.441,0.8 -0.158,0.08 -0.459,0.141 -0.898,0.141 v 0.959 c 0.459,0 0.779,0.04 1,0.12 0.359,0.16 0.539,0.46 0.539,0.92 0,0.34 -0.08,0.6 -0.279,0.78 -0.201,0.18 -0.439,0.279 -0.701,0.279 -0.439,0 -0.738,-0.16 -0.898,-0.5 a 1.58,1.58 0 0 1 -0.143,-0.679 z m -100.65,0 c 0,0.28 0.04,0.5 0.14,0.68 0.16,0.34 0.46,0.5 0.9,0.5 0.259,0 0.479,-0.1 0.68,-0.279 0.2,-0.181 0.3,-0.44 0.3,-0.78 0,-0.46 -0.18,-0.76 -0.56,-0.92 -0.2,-0.08 -0.54,-0.12 -0.979,-0.12 v -0.959 c 0.419,0 0.72,-0.061 0.9,-0.141 0.3,-0.119 0.439,-0.399 0.439,-0.8 0,-0.26 -0.08,-0.479 -0.22,-0.64 -0.16,-0.16 -0.36,-0.24 -0.64,-0.24 -0.32,0 -0.54,0.101 -0.7,0.301 -0.14,0.199 -0.22,0.479 -0.2,0.799 h -1.259 c 0,-0.34 0.06,-0.659 0.16,-0.959 0.12,-0.26 0.28,-0.52 0.52,-0.74 0.18,-0.16 0.4,-0.279 0.64,-0.359 0.24,-0.1 0.54,-0.141 0.899,-0.141 0.64,0 1.18,0.181 1.58,0.521 0.4,0.34 0.6,0.779 0.6,1.359 0,0.399 -0.12,0.74 -0.36,1.02 -0.14,0.181 -0.3,0.3 -0.46,0.36 0.12,0 0.3,0.1 0.52,0.319 0.36,0.32 0.52,0.74 0.52,1.3 0,0.58 -0.2,1.1 -0.6,1.539 -0.4,0.44 -1,0.66 -1.779,0.66 -0.98,0 -1.66,-0.32 -2.04,-0.96 -0.2,-0.34 -0.3,-0.779 -0.32,-1.319 h 1.319 z m 8.977,14.116 0.82,3.558 0.18,1 0.179,-0.979 0.7,-3.579 h 1.38 l 0.74,3.558 0.18,1 0.2,-0.96 0.819,-3.598 h 1.32 l -1.739,6.218 h -1.24 l -0.74,-3.639 -0.22,-1.2 -0.219,1.2 -0.76,3.639 h -1.2 l -1.76,-6.218 z m 11.257,0.16 c 0.24,0.1 0.44,0.26 0.58,0.439 0.14,0.16 0.24,0.34 0.32,0.52 0.08,0.2 0.12,0.42 0.12,0.66 0,0.3 -0.08,0.579 -0.22,0.859 -0.14,0.28 -0.4,0.5 -0.72,0.601 0.28,0.119 0.48,0.279 0.6,0.499 0.1,0.22 0.16,0.54 0.16,0.98 v 0.42 c 0,0.279 0.02,0.46 0.04,0.579 0.041,0.16 0.121,0.26 0.24,0.34 v 0.16 h -1.419 c -0.04,-0.14 -0.06,-0.24 -0.08,-0.34 a 2.18,2.18 0 0 1 -0.06,-0.52 v -0.58 c -0.02,-0.4 -0.08,-0.66 -0.22,-0.8 -0.12,-0.14 -0.38,-0.2 -0.74,-0.2 h -1.259 v 2.439 h -1.279 v -6.218 h 2.979 c 0.417,0.021 0.738,0.061 0.958,0.162 z m -2.66,0.899 v 1.699 h 1.399 c 0.28,0 0.48,-0.04 0.62,-0.12 0.26,-0.1 0.38,-0.34 0.38,-0.699 0,-0.38 -0.12,-0.64 -0.36,-0.76 -0.14,-0.08 -0.34,-0.12 -0.6,-0.12 z m 9.437,0.04 h -3.198 v 1.34 h 2.919 v 1.06 h -2.919 v 1.619 h 3.338 v 1.1 h -4.618 v -6.218 h 4.478 z m 2.22,5.119 h -1.519 l 1.999,-3.16 -1.899,-3.058 h 1.559 l 1.1,2.018 1.119,-2.018 h 1.52 l -1.899,2.999 2.019,3.219 h -1.58 l -1.179,-2.12 z m 4.759,0 v -6.218 h 1.279 v 2.379 h 2.42 v -2.379 h 1.279 v 6.218 H 90.85 v -2.78 h -2.42 v 2.78 z m 7.997,-6.218 h 1.439 l 2.18,6.218 h -1.4 l -0.4,-1.279 h -2.259 l -0.42,1.279 h -1.36 z m -0.1,3.879 h 1.579 l -0.76,-2.46 z m 8.679,-3.879 h 1.859 v 6.218 h -1.201 v -4.199 c 0,-0.119 0.021,-0.299 0.021,-0.499 v -0.521 l -1.18,5.219 h -1.281 l -1.178,-5.219 v 5.219 h -1.182 v -6.218 h 1.881 l 1.139,4.898 z m 6.877,0 h 1.459 l 2.199,6.218 h -1.398 l -0.42,-1.279 h -2.279 l -0.42,1.279 h -1.34 z m -0.081,3.879 h 1.58 l -0.779,-2.46 z m 4.399,2.339 h 1.279 v -1.26 h -1.279 z m 2.519,-6.218 h 4.418 v 1.099 h -3.138 v 1.44 h 2.74 v 1.059 h -2.74 v 2.62 h -1.28 z m 4.2,4.958 h 1.259 v 1.26 h -1.259 z m 3.119,-4.299 c 0.5,-0.52 1.119,-0.76 1.898,-0.76 1.021,0 1.779,0.34 2.26,1.02 0.26,0.381 0.4,0.76 0.42,1.141 h -1.279 a 1.94,1.94 0 0 0 -0.32,-0.681 c -0.24,-0.26 -0.58,-0.399 -1.02,-0.399 -0.459,0 -0.84,0.2 -1.1,0.58 -0.26,0.38 -0.4,0.92 -0.4,1.6 0,0.699 0.141,1.219 0.42,1.56 0.281,0.359 0.641,0.52 1.061,0.52 0.459,0 0.779,-0.14 1.02,-0.439 0.119,-0.16 0.24,-0.4 0.32,-0.721 h 1.279 c -0.121,0.681 -0.4,1.24 -0.84,1.66 -0.459,0.42 -1.039,0.64 -1.76,0.64 -0.879,0 -1.559,-0.3 -2.08,-0.859 -0.498,-0.58 -0.738,-1.359 -0.738,-2.359 -10e-4,-1.083 0.279,-1.923 0.859,-2.503 z m 5.498,5.559 h 1.26 v -1.26 h -1.26 z"
     id="path4"
     style="clip-rule:evenodd;fill-rule:evenodd" />
  <path
     d="m 148.611,90.52 c -2.039,-7.857 -5.258,-15.075 -5.258,-29.311 0,-20.894 9.639,-34.91 9.639,-34.91 l -8.318,-7.218 c -5.039,3.539 -13.236,5.838 -22.473,5.838 -11.738,0 -21.754,-3.699 -25.833,-8.938 -4.039,5.238 -14.076,8.938 -25.812,8.938 -9.237,0 -17.435,-2.299 -22.473,-5.838 l -8.297,7.218 c 0,0 9.617,14.016 9.617,34.91 0,14.495 -3.339,21.693 -5.358,29.731 10.577,-3.999 46.046,-17.335 52.824,-19.894 6.576,2.479 40.008,15.055 51.742,19.474 z"
     fill="#33a457"
     id="path5"
     style="clip-rule:evenodd;fill-rule:evenodd" />
  <path
     d="M 96.868,71.046 C 90.089,73.605 54.62,86.941 44.043,90.94 a 50.639,50.639 0 0 0 -1.12,5.458 c 8.917,-3.339 46.906,-17.615 53.944,-20.274 6.798,2.56 42.388,15.955 52.904,19.914 a 46.246,46.246 0 0 0 -1.16,-5.519 C 136.877,86.101 103.445,73.525 96.868,71.046 Z"
     fill="#cd3529"
     id="path6"
     style="clip-rule:evenodd;fill-rule:evenodd" />
  <path
     d="m 42.923,96.398 a 43.535,43.535 0 0 0 -0.439,6.277 c 0,14.856 2.239,26.393 14.336,36.29 12.096,9.896 20.534,7.918 28.871,11.557 5.539,2.419 9.577,6.498 10.677,9.297 1.121,-2.799 5.158,-6.878 10.716,-9.297 8.318,-3.639 16.756,-1.66 28.852,-11.557 12.098,-9.897 14.336,-21.434 14.336,-36.29 0,-2.419 -0.18,-4.618 -0.5,-6.638 L 96.868,76.123 A 42836.28,42836.28 0 0 1 42.923,96.398 Z"
     fill="#ffffff"
     id="path7"
     style="clip-rule:evenodd;fill-rule:evenodd" />
  <path
     d="m 141.475,99.497 c -0.699,0 -1.4,-0.16 -2.061,-0.42 -0.258,-0.1 -0.619,-0.16 -0.838,-0.06 -2.381,1.039 -4.66,2.339 -7.178,3.079 -0.16,0.04 -0.262,-0.28 0,-0.18 0.498,-0.521 1.078,-0.94 1.738,-1.2 -0.279,-2.159 0.721,-4.158 2.32,-5.478 0.16,-0.14 0.119,-0.54 -0.041,-0.54 -2.699,-0.08 -4.719,1.86 -5.998,4.039 -0.4,0.7 -0.68,1.46 -0.82,2.279 -0.68,0.58 -1.479,1.02 -2.318,1.5 0.061,-0.42 0.199,-0.88 0.6,-1.12 1.359,-0.819 1.82,-2.579 1.039,-3.979 -0.16,-0.3 -0.18,-0.64 -0.059,-0.96 a 14.82,14.82 0 0 1 1.838,-3.359 c 0.08,-0.1 -0.08,-0.36 -0.18,-0.38 -0.939,-0.12 -1.68,0.44 -2.318,1.04 -0.48,0.46 -0.92,0.96 -1.199,1.54 -0.561,-0.22 -1.141,-0.28 -1.76,-0.22 0.34,-0.619 0.859,-1.079 1.559,-1.359 -0.34,-0.819 -0.561,-1.619 -0.619,-2.519 0,-0.12 0.08,-0.36 0.039,-0.58 0,-0.04 -0.16,-0.16 -0.24,-0.24 -0.439,0.16 -0.738,0.54 -1.059,0.9 -1.34,1.58 -1.959,3.599 -2.32,5.558 -1.158,-0.06 -2.359,0 -3.299,0.7 -0.379,0.279 -0.539,0.779 -0.34,1.34 0.82,-0.16 1.721,-0.221 2.561,0.06 0.299,0.1 0.58,0.28 0.84,0.6 -0.861,-0.1 -1.641,-0.14 -2.4,-0.16 -0.119,0 -0.539,0.181 -0.619,0.3 -0.1,0.141 -0.121,0.4 -0.18,0.6 -0.16,0.5 0.059,1.04 0.5,1.301 0.578,0.319 1.238,0.02 1.539,-0.5 0.939,0.18 1.76,0.26 2.578,0.279 -0.1,0.48 -0.18,0.979 -0.219,1.5 -0.02,0.24 0.059,0.52 0.059,0.76 -3.098,0.08 -5.396,2.479 -6.357,5.318 0.16,0.08 0.32,0.26 0.4,0.46 0.561,0.1 1.1,0.279 1.68,0.659 l -6.438,-0.02 c -0.861,0.08 -1.701,0.26 -2.541,0.5 a 14.43,14.43 0 0 1 -3.078,3.698 c 1.02,-0.04 2.02,-0.539 3.02,-0.859 2.898,-0.939 6.217,-0.58 8.377,1.699 0.48,-0.3 0.84,-0.5 1.219,-0.659 0.24,2.259 0.98,4.398 1.24,6.617 0.279,2.38 -0.539,4.719 -1.639,6.799 -0.041,0.08 -0.26,0.22 -0.281,0.3 -0.039,0.08 -0.02,0.36 0,0.399 0.221,0.24 0.4,0.641 0.58,0.66 0.52,0.1 1,0.16 1.561,0.06 1.539,-0.3 1.918,-8.098 1.918,-8.997 0,-2.759 -0.398,-7.838 2.699,-9.417 0.141,-0.06 0.32,-0.06 0.42,0 0.182,0.16 0.102,0.46 0.041,0.699 -0.279,1.22 -1.24,2.14 -1.699,3.279 l -0.561,1.899 c -0.18,1.68 0.02,3.379 -0.119,5.039 -0.221,2.239 -0.621,4.458 -1.359,6.498 -1.121,1.299 -1.061,3.019 -0.48,4.479 0.34,0.84 0.74,1.659 0.84,2.559 0.119,1.26 0.08,2.6 -0.66,3.68 -0.061,0.1 -0.18,0.239 -0.279,0.22 -1.4,-0.2 -2.84,-0.26 -4.279,-0.24 l -1.619,1.78 c -0.16,0.159 -0.24,0.579 -0.061,0.6 0.4,0.039 0.82,0.199 1.141,0.459 0.719,0.601 1.219,1.4 1.719,2.24 0.061,0.08 0.08,0.34 0.26,0.399 0.24,0.08 0.439,-0.08 0.6,-0.28 0.9,-1.1 2.279,-1.499 3.66,-1.539 1.299,-0.06 1.918,-1.359 2.039,-2.539 0.1,-0.88 0.119,-1.76 0.08,-2.719 a 16.83,16.83 0 0 1 2.02,-0.061 c 0.039,0.02 0.199,0.22 0.26,0.24 0.1,0.02 0.439,0.02 0.5,-0.021 0.139,-0.1 0.158,-0.3 0.139,-0.479 -0.1,-1.08 -0.74,-2.04 -1.658,-2.659 0.439,-0.78 0.18,-1.78 -0.602,-2.239 -0.1,-0.061 -0.219,-0.181 -0.199,-0.221 0.48,-0.72 1.379,-0.979 2.08,-0.479 3.018,1.319 6.818,0.52 8.338,-2.64 0.84,-1.759 0.539,-3.918 -0.98,-5.178 0.76,-0.42 1.279,-1.18 1.58,-2 0.1,-0.3 0.359,-0.68 0.658,-0.6 0.561,0.14 1.141,0.38 1.5,0.8 0.121,0.12 0.42,-0.2 0.381,-0.399 -0.381,-1.8 0,-3.6 0.34,-5.379 -0.439,-0.06 -0.801,0.04 -1.1,0.26 -1.42,1.02 -3.039,2 -4.859,1.859 -0.199,-0.02 -0.34,0.16 -0.32,0.36 0.021,0.22 0.24,0.26 0.42,0.279 0.34,0.04 0.74,0.181 0.961,0.5 0.459,0.681 0.24,1.6 -0.26,2.319 -0.381,0.561 -0.859,1.061 -1.5,1.42 -0.959,-0.02 -1.939,0.6 -2.24,1.58 -0.119,0.379 -0.1,0.799 -0.08,1.099 0.461,0.979 1.541,1.14 2.381,0.761 0.199,-0.08 0.359,-0.24 0.52,-0.381 0.24,0.28 0.119,0.641 -0.121,0.86 -1.699,1.56 -4.379,1.56 -5.877,-0.24 -0.701,-0.819 -1.121,-1.839 -1.26,-2.919 -0.221,-1.939 -0.18,-3.898 0.219,-5.799 0.041,-0.199 0.32,-0.319 0.48,-0.379 0.34,2.438 0.141,4.918 -0.26,7.338 -0.039,0.18 0.199,0.439 0.48,0.34 0.859,-0.34 1.818,-0.8 2.738,-1.34 0.18,-0.1 0.16,-0.4 0,-0.5 -0.639,-0.4 -1.1,-1.16 -0.82,-1.859 0.701,-0.9 1.359,-1.72 2.18,-2.359 0.18,-0.141 -0.02,-0.46 -0.26,-0.52 -0.5,-0.08 -0.9,-0.38 -1.16,-0.86 0.102,-0.46 0.461,-0.859 0.881,-1.14 0.5,-0.359 0.979,-0.739 1.5,-0.96 0.119,-0.06 0.02,-0.359 0.02,-0.38 0.58,-0.879 1.199,-1.659 2.02,-2.139 0.24,-0.141 0.539,-0.141 0.76,-0.24 0,-0.12 0.02,-0.399 0,-0.48 -0.08,-0.139 -0.24,-0.299 -0.34,-0.319 -1.381,-0.32 -2.719,-0.7 -4.08,-0.859 1.779,-0.12 3.719,-0.04 5.119,1.26 -0.061,0.18 0.02,0.319 0.16,0.38 0.16,0.08 0.459,0.02 0.439,-0.221 -0.08,-0.52 0.061,-1.159 0.34,-1.719 0.08,-0.16 0.02,-0.38 -0.16,-0.42 -1.479,-0.32 -2.918,-0.84 -4.299,-1.42 0.16,-0.14 0.34,-0.3 0.561,-0.32 0.801,-0.08 1.6,-0.039 2.379,0.141 0.16,0.02 0.621,0.22 0.74,0.34 l 0.84,0.819 c 0.061,0.06 0.16,0.4 0.24,0.48 0.16,0.159 0.439,0.1 0.6,-0.08 0.16,-0.181 0.26,-0.4 0.279,-0.641 0.061,-0.38 0.08,-0.759 0.061,-1.14 -0.08,-1.14 -1,-2.019 -2.1,-2.179 -2.42,-0.34 -4.799,0.52 -6.918,1.979 0.381,-0.98 1.1,-1.52 1.859,-1.92 1.84,-1.02 4.02,-1.34 5.918,-0.38 0.24,0.12 0.381,0.521 0.641,0.62 0.16,0.06 0.4,-0.04 0.4,-0.2 l -0.021,-3.519 c 0,-0.181 -0.18,-0.4 -0.52,-0.32 -0.879,0.221 -1.939,0.439 -3.02,0.6 2.74,-1.1 5.439,-2.219 8.078,-3.459 0.154,-0.079 0.014,-0.519 -0.185,-0.519 z m -12.496,13.477 c 0.139,0 0.299,0.159 0.34,0.18 0.699,0.1 1.379,0.479 1.74,1.159 0.039,0.061 0.02,0.521 0.039,0.681 -1.32,-0.5 -2.479,-1.28 -3.779,-1.8 a 8.937,8.937 0 0 1 1.66,-0.22 z m -45.167,-2.46 c -0.8,-0.22 -1.6,-0.399 -2.419,-0.479 l -6.458,0.02 c 0.6,-0.38 1.12,-0.56 1.7,-0.659 0.08,-0.2 0.22,-0.38 0.4,-0.46 -0.98,-2.84 -3.279,-5.238 -6.378,-5.318 0.02,-0.24 0.1,-0.52 0.08,-0.76 a 11.74,11.74 0 0 0 -0.22,-1.5 c 0.799,-0.02 1.619,-0.1 2.579,-0.279 0.28,0.52 0.96,0.819 1.52,0.5 0.46,-0.261 0.68,-0.801 0.52,-1.301 -0.06,-0.199 -0.08,-0.459 -0.18,-0.6 -0.08,-0.119 -0.5,-0.3 -0.62,-0.3 -0.78,0.021 -1.54,0.061 -2.399,0.16 0.26,-0.319 0.54,-0.5 0.84,-0.6 0.84,-0.28 1.739,-0.22 2.559,-0.06 0.2,-0.561 0.04,-1.061 -0.34,-1.34 -0.939,-0.7 -2.14,-0.76 -3.299,-0.7 -0.359,-1.959 -0.979,-3.979 -2.319,-5.558 -0.319,-0.36 -0.62,-0.74 -1.06,-0.9 -0.08,0.08 -0.24,0.2 -0.26,0.24 -0.04,0.22 0.06,0.459 0.06,0.58 -0.06,0.9 -0.28,1.7 -0.62,2.519 0.7,0.28 1.22,0.74 1.539,1.359 -0.6,-0.06 -1.179,0 -1.739,0.22 -0.3,-0.58 -0.72,-1.08 -1.2,-1.54 -0.64,-0.6 -1.4,-1.16 -2.319,-1.04 -0.101,0.02 -0.26,0.28 -0.18,0.38 a 16.516,16.516 0 0 1 1.839,3.359 c 0.12,0.32 0.1,0.66 -0.08,0.96 a 2.947,2.947 0 0 0 1.06,3.979 c 0.4,0.24 0.54,0.7 0.58,1.12 -0.82,-0.48 -1.62,-0.92 -2.319,-1.5 a 6.494,6.494 0 0 0 -0.82,-2.279 c -1.26,-2.179 -3.279,-4.119 -5.978,-4.039 -0.18,0 -0.2,0.4 -0.04,0.54 1.6,1.32 2.599,3.319 2.319,5.478 0.66,0.26 1.22,0.68 1.739,1.2 0.26,-0.101 0.16,0.22 0,0.18 -2.539,-0.74 -4.799,-2.04 -7.178,-3.079 -0.22,-0.101 -0.58,-0.04 -0.84,0.06 -0.66,0.26 -1.359,0.42 -2.08,0.42 -0.18,0 -0.32,0.439 -0.16,0.52 2.619,1.24 5.338,2.359 8.078,3.459 -1.08,-0.16 -2.16,-0.379 -3.039,-0.6 -0.32,-0.08 -0.5,0.14 -0.5,0.32 l -0.02,3.519 c 0,0.16 0.22,0.26 0.4,0.2 0.26,-0.1 0.4,-0.5 0.64,-0.62 1.899,-0.96 4.079,-0.64 5.898,0.38 0.76,0.4 1.5,0.939 1.859,1.92 -2.119,-1.46 -4.479,-2.319 -6.898,-1.979 -1.12,0.16 -2.02,1.039 -2.099,2.179 -0.04,0.381 0,0.76 0.04,1.14 0.04,0.24 0.14,0.46 0.28,0.641 0.16,0.18 0.44,0.239 0.62,0.08 0.08,-0.08 0.16,-0.421 0.24,-0.48 l 0.82,-0.819 c 0.12,-0.12 0.6,-0.32 0.76,-0.34 0.78,-0.18 1.58,-0.221 2.379,-0.141 0.22,0.021 0.4,0.181 0.54,0.32 -1.36,0.58 -2.799,1.1 -4.299,1.42 -0.16,0.04 -0.22,0.26 -0.14,0.42 0.26,0.56 0.399,1.199 0.34,1.719 -0.021,0.24 0.279,0.301 0.439,0.221 0.12,-0.061 0.2,-0.2 0.16,-0.38 1.399,-1.3 3.339,-1.38 5.119,-1.26 -1.38,0.159 -2.699,0.539 -4.079,0.859 -0.101,0.021 -0.26,0.181 -0.34,0.319 -0.04,0.081 0,0.36 0,0.48 0.22,0.1 0.5,0.1 0.74,0.24 0.84,0.479 1.459,1.26 2.02,2.139 0.02,0.021 -0.08,0.32 0.04,0.38 0.52,0.221 1,0.601 1.5,0.96 0.42,0.28 0.78,0.68 0.879,1.14 -0.26,0.48 -0.68,0.78 -1.159,0.86 -0.26,0.06 -0.46,0.379 -0.26,0.52 0.82,0.64 1.48,1.459 2.179,2.359 0.26,0.699 -0.18,1.459 -0.839,1.859 -0.16,0.1 -0.16,0.4 0,0.5 0.939,0.54 1.899,1 2.739,1.34 0.3,0.1 0.52,-0.16 0.5,-0.34 -0.399,-2.42 -0.6,-4.899 -0.28,-7.338 0.18,0.06 0.459,0.18 0.5,0.379 0.4,1.9 0.42,3.859 0.2,5.799 -0.12,1.08 -0.56,2.1 -1.239,2.919 -1.5,1.8 -4.199,1.8 -5.879,0.24 -0.239,-0.22 -0.38,-0.58 -0.14,-0.86 0.18,0.141 0.34,0.301 0.54,0.381 0.84,0.379 1.919,0.219 2.379,-0.761 0.02,-0.3 0.04,-0.72 -0.08,-1.099 -0.32,-0.98 -1.28,-1.6 -2.259,-1.58 -0.64,-0.359 -1.12,-0.859 -1.5,-1.42 -0.479,-0.72 -0.7,-1.639 -0.239,-2.319 0.22,-0.319 0.619,-0.46 0.959,-0.5 0.16,-0.02 0.4,-0.06 0.42,-0.279 0.02,-0.2 -0.14,-0.38 -0.32,-0.36 -1.84,0.141 -3.439,-0.84 -4.879,-1.859 -0.28,-0.22 -0.64,-0.319 -1.08,-0.26 0.32,1.779 0.72,3.579 0.34,5.379 -0.06,0.199 0.26,0.52 0.38,0.399 0.34,-0.42 0.94,-0.66 1.479,-0.8 0.3,-0.08 0.58,0.3 0.68,0.6 0.3,0.82 0.819,1.58 1.579,2 -1.52,1.26 -1.839,3.419 -0.979,5.178 1.52,3.159 5.298,3.959 8.337,2.64 0.68,-0.5 1.6,-0.24 2.06,0.479 0.04,0.04 -0.08,0.16 -0.18,0.221 a 1.656,1.656 0 0 0 -0.6,2.239 c -0.939,0.619 -1.56,1.579 -1.659,2.659 -0.021,0.18 -0.021,0.38 0.14,0.479 0.06,0.04 0.4,0.04 0.5,0.021 0.06,-0.021 0.2,-0.221 0.26,-0.24 0.66,-0.021 1.339,0 2.02,0.061 -0.06,0.959 -0.021,1.839 0.06,2.719 0.14,1.18 0.74,2.479 2.04,2.539 1.38,0.04 2.779,0.439 3.679,1.539 0.14,0.2 0.36,0.36 0.6,0.28 0.18,-0.06 0.2,-0.319 0.24,-0.399 0.52,-0.84 1.02,-1.64 1.739,-2.24 0.32,-0.26 0.74,-0.42 1.14,-0.459 0.16,-0.021 0.1,-0.44 -0.06,-0.6 l -1.62,-1.78 c -1.459,-0.02 -2.899,0.04 -4.279,0.24 -0.12,0.02 -0.22,-0.12 -0.28,-0.22 -0.74,-1.08 -0.78,-2.42 -0.66,-3.68 0.08,-0.899 0.5,-1.719 0.84,-2.559 0.56,-1.46 0.64,-3.18 -0.5,-4.479 -0.74,-2.04 -1.12,-4.259 -1.34,-6.498 -0.16,-1.66 0.06,-3.359 -0.12,-5.039 l -0.56,-1.899 c -0.459,-1.14 -1.419,-2.06 -1.719,-3.279 -0.04,-0.239 -0.12,-0.539 0.06,-0.699 0.101,-0.06 0.28,-0.06 0.4,0 3.099,1.579 2.719,6.658 2.719,9.417 0,0.899 0.38,8.697 1.92,8.997 0.56,0.101 1.039,0.04 1.559,-0.06 0.18,-0.02 0.36,-0.42 0.56,-0.66 0.04,-0.039 0.06,-0.319 0.02,-0.399 -0.02,-0.08 -0.24,-0.22 -0.28,-0.3 -1.099,-2.08 -1.919,-4.419 -1.639,-6.799 0.26,-2.219 1,-4.358 1.24,-6.617 0.36,0.159 0.74,0.359 1.219,0.659 2.16,-2.279 5.479,-2.639 8.378,-1.699 0.979,0.32 1.939,0.8 2.919,0.859 a 15.407,15.407 0 0 1 -3.101,-3.72 z m -21.614,4.479 c 0,-0.16 0,-0.62 0.04,-0.681 0.36,-0.68 1.02,-1.06 1.72,-1.159 0.06,-0.021 0.22,-0.18 0.36,-0.18 0.48,0.02 1.06,0.08 1.66,0.22 -1.301,0.52 -2.46,1.3 -3.78,1.8 z"
     fill="#cd3529"
     id="path8"
     style="clip-rule:evenodd;fill-rule:evenodd" />
  <path
     d="m 117.062,124.05 c 0.279,0.22 0.398,0.44 0.619,0.58 0.359,0.2 0.66,0.64 0.699,1.1 0,0.08 0.18,0.14 0.34,0.14 0.58,-1.399 0.859,-2.679 0.859,-3.879 0,-0.3 -0.02,-0.6 -0.059,-0.88 -0.061,-0.56 -0.16,-1.1 -0.26,-1.639 -0.08,-0.021 -0.18,-0.021 -0.24,0.02 -0.061,0.021 -0.221,0.2 -0.301,0.26 -0.779,0.5 -1.699,0.84 -2.818,0.76 -0.461,-0.04 -1.1,-0.22 -1.699,-0.319 -0.18,-0.021 -0.361,0.239 -0.24,0.439 0.279,0.5 0.719,0.96 1.059,1.76 -0.619,-0.521 -1.1,-0.84 -1.658,-1.04 -0.621,-0.24 -1.279,-0.399 -1.881,-0.739 -0.158,-0.08 -0.359,-0.04 -0.539,0.159 0.26,0.62 0.461,1.3 0.621,2 0.258,0.999 0.039,2.159 -0.842,2.659 -1.578,0.399 -3.078,0.18 -4.438,-0.22 -0.301,-0.08 -0.699,-0.141 -0.68,-0.021 0.08,0.399 0.061,0.819 0.039,1.26 a 6.753,6.753 0 0 0 -1.158,-1.52 c -0.061,-0.06 -0.5,-0.04 -0.621,0 -1.02,0.28 -2.02,0.68 -2.939,1.22 a 0.46,0.46 0 0 0 -0.219,0.5 c 0.539,0.06 1.119,0.18 1.619,0.46 1.32,0.739 2.5,1.72 3.6,2.919 0.479,-0.6 0.939,-1.02 1.539,-1.439 0.699,-0.181 1.539,-0.301 2.359,-0.521 1.799,-0.52 3.738,0.2 4.598,1.88 0.041,0.1 0.141,0.14 0.24,0.16 0.201,0.04 0.359,-0.08 0.48,-0.24 1.162,-1.7 1.921,-3.68 1.921,-5.819 z m -27.632,0.88 c -0.12,-0.04 -0.56,-0.06 -0.62,0 -0.46,0.439 -0.84,0.939 -1.16,1.52 -0.02,-0.44 -0.04,-0.86 0.04,-1.26 0.02,-0.12 -0.4,-0.06 -0.7,0.021 -1.34,0.399 -2.859,0.619 -4.419,0.22 -0.879,-0.5 -1.1,-1.66 -0.86,-2.659 0.18,-0.7 0.36,-1.38 0.62,-2 -0.18,-0.199 -0.38,-0.239 -0.54,-0.159 -0.58,0.34 -1.24,0.499 -1.88,0.739 -0.54,0.2 -1.04,0.52 -1.659,1.04 0.359,-0.8 0.799,-1.26 1.08,-1.76 0.1,-0.2 -0.06,-0.46 -0.24,-0.439 -0.6,0.1 -1.24,0.279 -1.699,0.319 -1.12,0.08 -2.04,-0.26 -2.839,-0.76 -0.06,-0.06 -0.22,-0.239 -0.28,-0.26 a 0.332,0.332 0 0 0 -0.239,-0.02 c -0.101,0.539 -0.2,1.079 -0.26,1.639 -0.04,0.28 -0.06,0.58 -0.06,0.88 0,1.2 0.28,2.479 0.84,3.879 0.18,0 0.34,-0.06 0.36,-0.14 0.04,-0.46 0.34,-0.899 0.68,-1.1 0.24,-0.14 0.359,-0.36 0.619,-0.58 0.021,2.14 0.78,4.119 1.94,5.818 0.1,0.16 0.28,0.28 0.48,0.24 0.1,-0.021 0.2,-0.061 0.239,-0.16 0.86,-1.68 2.8,-2.399 4.599,-1.88 0.8,0.22 1.639,0.34 2.339,0.521 0.62,0.42 1.08,0.84 1.56,1.439 1.08,-1.199 2.259,-2.18 3.599,-2.919 0.5,-0.28 1.06,-0.4 1.62,-0.46 0.04,-0.24 -0.06,-0.4 -0.22,-0.5 -0.941,-0.54 -1.92,-0.939 -2.94,-1.219 z m 25.953,-24.873 c -0.98,-2.239 -3.32,-3.319 -5.619,-3.778 0.541,1.02 0.959,2.139 1.24,3.299 l 0.139,0.42 c 0.98,0.22 1.66,1.16 1.6,2.159 -0.039,0.94 -0.119,1.88 -0.1,2.819 0.061,1.56 0.779,3.02 2.02,3.979 0.24,0.18 0.52,0.28 0.859,0.28 0,-0.021 0.021,-0.06 0.021,-0.08 l 0.139,-0.42 c 0.381,-1.14 0.939,-2.159 1.641,-2.999 -1.341,-1.56 -2.001,-3.559 -1.94,-5.679 z m -33.291,-0.04 c 0.28,-1.319 0.739,-2.579 1.339,-3.718 -2.279,0.479 -4.559,1.559 -5.518,3.758 0.06,2.12 -0.6,4.119 -1.96,5.679 0.7,0.84 1.28,1.859 1.66,2.999 l 0.14,0.42 c 0,0.021 0.02,0.06 0.02,0.08 0.34,0 0.62,-0.101 0.839,-0.28 a 5.2,5.2 0 0 0 2.02,-3.979 c 0.04,-0.939 -0.04,-1.879 -0.1,-2.819 -0.06,-0.98 0.6,-1.9 1.56,-2.14 z"
     fill="#cd3529"
     id="path9"
     style="clip-rule:evenodd;fill-rule:evenodd" />
  <path
     d="m 96.587,88.24 c -8.157,0 -14.795,6.639 -14.795,14.796 0,8.178 6.638,14.836 14.795,14.836 8.178,0 14.836,-6.658 14.836,-14.836 0.001,-8.157 -6.657,-14.796 -14.836,-14.796 z"
     id="path10"
     style="clip-rule:evenodd;fill-rule:evenodd" />
  <path
     d="m 89.85,98.237 c 1.9,-1.1 4.039,-1.72 6.218,-1.839 v 13.275 a 13.696,13.696 0 0 1 -6.218,-1.839 z m 13.496,9.598 a 13.62,13.62 0 0 1 -6.219,1.839 V 96.398 c 2.199,0.119 4.32,0.739 6.219,1.839 z"
     fill="#fde62f"
     id="path11"
     style="clip-rule:evenodd;fill-rule:evenodd" />
  <path
     d="m 89.35,97.298 a 15.297,15.297 0 0 1 6.718,-1.959 v -0.02 h 1.06 v 0.02 c 2.381,0.12 4.699,0.8 6.758,1.979 l 3.699,-2.479 C 105.065,91.48 101.087,89.3 96.588,89.3 c -4.458,0 -8.437,2.179 -10.957,5.499 z m 20.974,5.198 a 13.554,13.554 0 0 0 -2.119,-6.778 l -3.779,2.54 v 4.238 z m -5.898,1.08 v 4.259 l 3.779,2.539 a 13.614,13.614 0 0 0 2.119,-6.798 z m -0.541,5.179 a 14.671,14.671 0 0 1 -6.758,1.999 v 0.04 l -0.54,-0.02 -0.52,0.02 v -0.04 c -2.359,-0.1 -4.679,-0.78 -6.718,-1.979 l -3.719,2.52 c 2.52,3.339 6.499,5.498 10.957,5.498 4.499,0 8.499,-2.18 10.997,-5.519 z M 88.77,102.496 v -4.278 l -3.739,-2.52 a 13.404,13.404 0 0 0 -2.16,6.798 z m -5.898,1.08 c 0.1,2.519 0.88,4.839 2.14,6.838 l 3.759,-2.539 v -4.299 z"
     fill="#fde62f"
     id="path12"
     style="clip-rule:evenodd;fill-rule:evenodd" />
  <path
     d="m 138.814,62.288 -0.139,-0.64 c -0.02,-0.1 -2,-9.077 -2.08,-11.577 l -0.02,-0.56 -0.541,0.02 c -0.699,0.04 -17.213,0.819 -20.992,7.418 l -0.08,0.12 v 0.14 c 0,0.18 0.039,3.719 2.359,7.558 0.119,0.84 0.02,1.439 -0.26,1.76 -0.18,0.22 -0.461,0.319 -0.881,0.319 -2.6,0 -4.518,-0.659 -7.197,-4.039 0.58,-2.04 1.26,-4.418 1.299,-4.539 0,-0.021 0.061,-0.14 0.1,-0.22 1.08,0.34 2.279,-0.08 2.801,-1.14 0.18,-0.34 0.26,-0.7 0.26,-1.06 0,-0.66 -0.34,-1.219 -0.801,-1.68 0.041,-0.18 0.141,-0.38 0.141,-0.58 a 2.386,2.386 0 0 0 -1.32,-2.119 2.426,2.426 0 0 0 -1.539,-0.2 c 1.08,-3.479 3.439,-10.017 6.758,-13.276 0.6,1.139 1.08,2.559 1.279,4.398 l 0.08,0.78 0.701,-0.36 c 0.18,-0.08 4.297,-2.279 4.297,-7.098 0,-4.939 -4.059,-6.258 -6.457,-6.258 -2.24,0 -12.156,5.458 -13.336,20.654 -1.061,0.06 -1.92,0.84 -2.139,1.879 -0.361,0.14 -0.641,0.42 -0.9,0.72 0,-0.04 -0.02,-0.06 -0.041,-0.08 0.221,-5.498 1.58,-10.217 2.68,-14.076 0.9,-3.079 1.68,-5.758 1.68,-8.078 0,-3.259 -2.979,-5.158 -8.177,-5.238 -5.179,0.08 -8.158,1.979 -8.158,5.238 0,2.319 0.78,4.999 1.679,8.078 1.1,3.859 2.459,8.558 2.679,14.056 -0.22,-0.26 -0.48,-0.5 -0.799,-0.62 -0.22,-1.04 -1.06,-1.819 -2.14,-1.879 C 88.45,34.913 78.513,29.455 76.294,29.455 c -2.399,0 -6.458,1.319 -6.458,6.258 0,4.818 4.099,7.018 4.279,7.098 l 0.7,0.36 0.08,-0.78 c 0.2,-1.839 0.68,-3.259 1.3,-4.398 3.299,3.259 5.658,9.797 6.758,13.276 a 2.49,2.49 0 0 0 -1.56,0.2 c -0.56,0.3 -0.979,0.779 -1.18,1.379 -0.08,0.24 -0.12,0.5 -0.12,0.74 0,0.2 0.08,0.4 0.14,0.58 -0.48,0.46 -0.82,1.02 -0.82,1.68 0,0.36 0.08,0.72 0.26,1.06 0.54,1.06 1.719,1.479 2.799,1.14 0.04,0.08 0.1,0.199 0.12,0.22 0.02,0.12 0.72,2.499 1.28,4.539 -2.659,3.379 -4.579,4.039 -7.198,4.039 -0.4,0 -0.7,-0.1 -0.88,-0.319 -0.28,-0.32 -0.36,-0.92 -0.26,-1.76 2.319,-3.839 2.359,-7.378 2.359,-7.558 v -0.14 l -0.08,-0.12 C 74.035,50.35 57.54,49.571 56.82,49.531 l -0.54,-0.02 -0.02,0.56 c -0.06,2.5 -2.059,11.477 -2.08,11.577 l -0.14,0.64 h 0.66 c 8.198,0.18 12.896,1.36 15.515,2.439 -0.54,1.06 -1.119,2.719 -0.84,4.479 0.24,1.439 1.44,6.118 7.038,6.118 5.099,0 8.078,-6.338 9.297,-9.697 h 21.434 c 1.221,3.359 4.199,9.697 9.318,9.697 5.598,0 6.797,-4.679 7.018,-6.118 0.299,-1.759 -0.301,-3.419 -0.82,-4.479 2.619,-1.08 7.318,-2.259 15.496,-2.439 z M 92.569,55.75 c 0.2,-0.22 0.36,-0.46 0.46,-0.739 0.26,0.319 0.56,0.579 0.939,0.739 z m 6.318,0 c 0.381,-0.16 0.699,-0.42 0.961,-0.739 0.1,0.279 0.26,0.52 0.459,0.739 z"
     id="path13"
     style="clip-rule:evenodd;fill-rule:evenodd" />
  <path
     d="m 118.9,41.454 c 1.061,-0.779 3.061,-2.619 3.061,-5.738 0,-5.039 -4.84,-5.179 -5.379,-5.179 -0.779,0 -2.6,0.76 -4.6,2.5 2,0.52 5.94,2.339 6.918,8.417 z m -44.945,0 c -1.06,-0.779 -3.039,-2.619 -3.039,-5.738 0,-5.039 4.818,-5.179 5.378,-5.179 0.78,0 2.579,0.76 4.579,2.5 -2,0.52 -5.939,2.339 -6.918,8.417 z"
     fill="#ffffff"
     id="path14"
     style="clip-rule:evenodd;fill-rule:evenodd" />
  <path
     d="m 108.285,52.511 c 0,0 -0.221,0.74 -0.201,0.64 0,0 -0.52,2.04 -0.561,2.259 -0.039,0.06 -0.1,0.18 -0.18,0.34 h -0.578 a 2.37,2.37 0 0 0 0.619,-1.58 c 0,-0.759 -0.359,-1.419 -0.92,-1.839 1.199,-8.938 6.338,-15.516 7.719,-17.135 a 7.64,7.64 0 0 1 1.918,1.859 c -4.039,3.819 -6.658,11.937 -7.557,15.056 -0.101,0.12 -0.2,0.26 -0.259,0.4 z m -23.694,0 c 0,0 0.22,0.74 0.2,0.64 0,0 0.5,2.04 0.56,2.259 0.02,0.06 0.08,0.18 0.16,0.34 h 0.6 c -0.38,-0.42 -0.64,-0.979 -0.64,-1.58 0,-0.759 0.38,-1.419 0.939,-1.839 -1.199,-8.938 -6.358,-15.516 -7.737,-17.135 -0.66,0.44 -1.32,1.04 -1.9,1.859 4.039,3.819 6.658,11.937 7.558,15.056 0.1,0.12 0.18,0.26 0.26,0.4 z"
     fill="#ffffff"
     id="path15"
     style="clip-rule:evenodd;fill-rule:evenodd" />
  <path
     d="m 104.326,50.292 c 0.6,-8.138 3.719,-13.356 6.717,-16.375 0.4,0.06 1.26,0.239 2.221,0.72 -1.561,1.859 -6.398,8.217 -7.758,16.855 a 2.38,2.38 0 0 0 -1.18,-1.2 z m -15.776,0 c -0.6,-8.138 -3.719,-13.356 -6.718,-16.375 -0.42,0.06 -1.26,0.239 -2.22,0.72 1.56,1.859 6.378,8.217 7.738,16.855 0.24,-0.54 0.66,-0.96 1.2,-1.2 z m 13.956,-22.154 c -2.299,0.58 -5.338,1.78 -5.619,2.839 v 18.555 c 0.88,0.2 1.56,0.899 1.759,1.779 0.182,0.04 0.34,0.12 0.5,0.2 0.34,-5.158 1.621,-9.597 2.68,-13.256 0.859,-3 1.619,-5.619 1.619,-7.778 0,-0.999 -0.379,-1.759 -0.939,-2.339 z m -6.158,1.7 c 1.08,-1.2 3.5,-2.06 5.039,-2.52 -1.52,-0.78 -3.559,-0.979 -5.039,-1 -1.46,0.02 -3.499,0.22 -5.019,1 1.54,0.46 3.959,1.32 5.019,2.52 z m -0.52,1.14 c -0.28,-1.06 -3.319,-2.259 -5.619,-2.839 -0.56,0.58 -0.939,1.34 -0.939,2.339 0,2.159 0.76,4.778 1.639,7.778 1.06,3.679 2.319,8.158 2.659,13.356 0.2,-0.14 0.4,-0.24 0.64,-0.3 0.2,-0.84 0.82,-1.5 1.62,-1.74 z"
     fill="#ffffff"
     id="path16"
     style="clip-rule:evenodd;fill-rule:evenodd" />
  <path
     d="m 108.625,64.067 c 2.379,2.839 4.479,3.859 7.557,3.859 0.74,0 1.301,-0.24 1.699,-0.68 0.221,-0.26 0.381,-0.6 0.461,-1 0.119,0.16 0.24,0.32 0.359,0.46 l 0.461,0.56 0.398,-0.6 c 0.02,0 0.5,-0.68 2.1,-1.5 0.48,0.92 1,2.36 0.76,3.859 -0.26,1.58 -1.34,5.218 -5.957,5.218 -4.34,0 -7.059,-5.658 -8.219,-8.817 0.061,-0.259 0.199,-0.759 0.381,-1.359 z m -24.374,0 c -2.399,2.839 -4.479,3.859 -7.578,3.859 -0.72,0 -1.3,-0.24 -1.7,-0.68 -0.22,-0.26 -0.36,-0.6 -0.46,-1 -0.12,0.16 -0.22,0.32 -0.34,0.46 0,0 -0.46,0.56 -0.479,0.56 l -0.4,-0.6 c 0,0 -0.479,-0.68 -2.099,-1.5 -0.46,0.92 -1,2.36 -0.76,3.859 0.26,1.58 1.359,5.218 5.978,5.218 4.339,0 7.038,-5.658 8.218,-8.817 a 46.37,46.37 0 0 1 -0.38,-1.359 z"
     fill="#fde62f"
     id="path17"
     style="clip-rule:evenodd;fill-rule:evenodd" />
  <path
     d="m 137.477,61.249 c -0.42,-1.979 -1.68,-7.958 -1.92,-10.597 -2.82,0.18 -16.236,1.34 -19.494,6.718 0.02,0.76 0.359,4.539 3.1,8.178 1.298,-1.2 5.677,-3.94 18.314,-4.299 z m -82.097,0 c 0.42,-1.979 1.7,-7.958 1.939,-10.597 2.819,0.18 16.235,1.34 19.494,6.718 -0.04,0.76 -0.36,4.539 -3.099,8.178 -1.319,-1.2 -5.678,-3.94 -18.334,-4.299 z m 42.327,-9.398 c 0,0.16 -0.039,0.32 -0.1,0.48 0.119,-0.06 0.26,-0.1 0.4,-0.1 0.719,0 1.299,0.6 1.299,1.32 0,0.72 -0.58,1.3 -1.299,1.3 -0.26,0 -0.48,-0.08 -0.68,-0.2 v 2.16 h 5.398 v -1.54 c -0.201,0.12 -0.42,0.2 -0.68,0.2 -0.721,0 -1.32,-0.58 -1.32,-1.3 0,-0.72 0.6,-1.319 1.32,-1.319 0.039,0 0.08,0.02 0.119,0.04 -0.039,-0.14 -0.08,-0.28 -0.08,-0.42 0,-0.72 0.58,-1.32 1.301,-1.32 0.719,0 1.318,0.6 1.318,1.32 0,0.16 -0.039,0.32 -0.1,0.459 0.119,-0.04 0.26,-0.08 0.4,-0.08 0.719,0 1.318,0.6 1.318,1.319 0,0.72 -0.6,1.3 -1.318,1.3 -0.24,0 -0.48,-0.08 -0.68,-0.2 v 1.54 h 3.678 l 0.52,-1.02 0.58,-2.379 c 0.041,-0.14 0.061,-0.28 0.121,-0.4 0.34,-0.659 1.119,-0.919 1.76,-0.58 0.639,0.32 0.898,1.12 0.58,1.759 -0.082,0.14 -0.182,0.26 -0.301,0.38 0.141,0.021 0.26,0.04 0.4,0.101 0.639,0.34 0.898,1.119 0.58,1.759 -0.34,0.64 -1.121,0.899 -1.76,0.58 -0.24,-0.12 -0.4,-0.3 -0.52,-0.5 l -0.682,1.36 -1.918,6.698 h -21.87 l -1.899,-6.698 -0.7,-1.36 c -0.12,0.2 -0.28,0.38 -0.5,0.5 -0.64,0.32 -1.439,0.06 -1.76,-0.58 -0.32,-0.64 -0.08,-1.419 0.58,-1.759 0.12,-0.061 0.26,-0.08 0.38,-0.101 -0.1,-0.12 -0.22,-0.24 -0.28,-0.38 -0.34,-0.64 -0.08,-1.439 0.56,-1.759 0.66,-0.34 1.439,-0.08 1.76,0.58 0.08,0.12 0.1,0.26 0.12,0.4 l 0.58,2.379 0.54,1.02 h 3.659 v -1.54 c -0.2,0.12 -0.42,0.2 -0.68,0.2 -0.72,0 -1.3,-0.58 -1.3,-1.3 0,-0.72 0.58,-1.319 1.3,-1.319 0.14,0 0.28,0.04 0.399,0.08 -0.04,-0.14 -0.08,-0.3 -0.08,-0.459 0,-0.72 0.58,-1.32 1.3,-1.32 0.72,0 1.319,0.6 1.319,1.32 0,0.14 -0.04,0.28 -0.1,0.42 0.06,-0.02 0.08,-0.04 0.14,-0.04 0.72,0 1.3,0.6 1.3,1.319 0,0.72 -0.58,1.3 -1.3,1.3 -0.26,0 -0.48,-0.08 -0.68,-0.2 v 1.54 h 5.378 v -2.16 c -0.2,0.12 -0.419,0.2 -0.66,0.2 -0.74,0 -1.319,-0.58 -1.319,-1.3 0,-0.72 0.58,-1.32 1.319,-1.32 a 1,1 0 0 1 0.4,0.1 c -0.06,-0.16 -0.1,-0.32 -0.1,-0.48 0,-0.719 0.56,-1.299 1.26,-1.299 0.7,0 1.28,0.58 1.28,1.299 z m 4.658,10.957 v -4.239 h -4.998 v 4.239 z m -11.875,0 h 4.999 V 58.569 H 90.49 Z m 13.875,-4.239 v 4.239 h 1.68 c 0.381,-1.299 0.68,-2.359 1.221,-4.239 z m -15.875,0 h -2.879 c 0.54,1.879 0.84,2.939 1.2,4.239 h 1.679 z"
     fill="#fde62f"
     id="path18"
     style="clip-rule:evenodd;fill-rule:evenodd" />
  <path
     d="m 119.92,56.55 c 0.4,-0.06 0.781,0.02 1.141,0.2 0.279,0.16 0.539,0.38 0.74,0.62 0.199,0.26 0.359,0.52 0.479,0.78 0.32,0.64 0.461,1.26 0.4,1.84 -0.039,0.779 -0.439,1.339 -1.18,1.699 l -2.119,1.02 -2.359,-4.878 2.1,-1.02 c 0.3,-0.141 0.579,-0.241 0.798,-0.261 z m -1.498,1.639 1.559,3.199 0.939,-0.46 c 0.48,-0.24 0.701,-0.64 0.66,-1.2 -0.02,-0.32 -0.119,-0.66 -0.299,-1.02 -0.24,-0.5 -0.52,-0.84 -0.801,-1.04 -0.279,-0.18 -0.66,-0.16 -1.119,0.06 z m 6.777,2.18 -1.08,0.32 -1.478,-5.219 1.08,-0.32 z m 3.998,-5.358 -2.758,0.499 0.2,1.14 2.539,-0.46 0.16,0.92 -2.52,0.459 0.241,1.38 2.9,-0.52 0.18,0.96 -4,0.72 -0.959,-5.338 3.859,-0.7 z m 1.282,-1.12 1.179,-0.1 2.479,3.579 -0.321,-3.759 1.041,-0.1 0.459,5.418 -1.119,0.08 -2.539,-3.639 0.319,3.839 -1.039,0.08 z m -70.121,5.478 -1.119,-0.08 0.46,-5.418 1.119,0.1 z m 2.22,-4.659 c 0.5,-0.38 1.08,-0.52 1.74,-0.419 0.9,0.14 1.5,0.52 1.839,1.179 0.16,0.36 0.24,0.72 0.2,1.06 l -1.1,-0.16 c -0.04,-0.28 -0.1,-0.5 -0.2,-0.64 -0.16,-0.26 -0.44,-0.419 -0.82,-0.48 -0.4,-0.06 -0.74,0.061 -1.02,0.34 -0.28,0.3 -0.46,0.76 -0.56,1.36 -0.1,0.6 -0.04,1.08 0.16,1.419 0.2,0.32 0.479,0.52 0.859,0.58 0.38,0.06 0.7,-0.02 0.94,-0.26 0.12,-0.12 0.24,-0.32 0.36,-0.58 l 1.12,0.16 c -0.18,0.58 -0.5,1.02 -0.959,1.319 -0.44,0.32 -0.98,0.42 -1.6,0.32 -0.76,-0.1 -1.32,-0.44 -1.68,-1 -0.36,-0.56 -0.479,-1.279 -0.34,-2.139 0.141,-0.939 0.501,-1.639 1.061,-2.059 z m 3.979,5.539 1.579,-5.199 1.08,0.32 -0.6,1.98 2.019,0.62 0.6,-1.98 1.08,0.32 -1.58,5.199 -1.079,-0.321 0.699,-2.319 -2.019,-0.62 -0.7,2.319 z"
     id="path19"
     style="clip-rule:evenodd;fill-rule:evenodd" />
</svg>
